<mxfile host="65bd71144e">
    <diagram id="wE0ajQqVN8ZXP2OR7bFC" name="Page-1">
        <mxGraphModel dx="1113" dy="634" grid="1" gridSize="10" guides="1" tooltips="1" connect="1" arrows="1" fold="1" page="1" pageScale="1" pageWidth="1169" pageHeight="827" math="0" shadow="0">
            <root>
                <mxCell id="0"/>
                <mxCell id="1" parent="0"/>
                <mxCell id="L_lt8IWHbVz3kpPMdmdx-8" value="" style="rounded=0;whiteSpace=wrap;html=1;dashed=1;dashPattern=1 1;fillColor=none;" parent="1" vertex="1">
                    <mxGeometry x="1680" y="210" width="270" height="81" as="geometry"/>
                </mxCell>
                <mxCell id="OGDo6H8NNohpMqfSObW9-145" value="F" style="text;html=1;strokeColor=none;fillColor=none;align=center;verticalAlign=middle;whiteSpace=wrap;rounded=0;" parent="1" vertex="1">
                    <mxGeometry x="1682" y="219" width="60" height="30" as="geometry"/>
                </mxCell>
                <mxCell id="L_lt8IWHbVz3kpPMdmdx-9" value="&amp;nbsp;S9b" style="text;html=1;strokeColor=none;fillColor=none;align=left;verticalAlign=middle;whiteSpace=wrap;rounded=0;dashed=1;dashPattern=1 1;fontStyle=1;fontColor=#FF0000;fontSize=15;" parent="1" vertex="1">
                    <mxGeometry x="1640" y="211" width="40" height="30" as="geometry"/>
                </mxCell>
                <mxCell id="OGDo6H8NNohpMqfSObW9-61" value="" style="rounded=0;whiteSpace=wrap;html=1;dashed=1;dashPattern=1 1;fillColor=none;" parent="1" vertex="1">
                    <mxGeometry x="820" y="197" width="380" height="203" as="geometry"/>
                </mxCell>
                <mxCell id="qE4AglkrRlAp2CRrqQMC-1" value="" style="rounded=0;whiteSpace=wrap;html=1;dashed=1;dashPattern=1 1;fillColor=none;" parent="1" vertex="1">
                    <mxGeometry x="1680" y="314" width="270" height="66" as="geometry"/>
                </mxCell>
                <mxCell id="OGDo6H8NNohpMqfSObW9-154" value="" style="rounded=0;whiteSpace=wrap;html=1;dashed=1;dashPattern=1 1;fillColor=none;" parent="1" vertex="1">
                    <mxGeometry x="900" y="850" width="240" height="100" as="geometry"/>
                </mxCell>
                <mxCell id="OGDo6H8NNohpMqfSObW9-135" value="" style="rounded=0;whiteSpace=wrap;html=1;dashed=1;dashPattern=1 1;fillColor=none;" parent="1" vertex="1">
                    <mxGeometry x="900" y="99" width="240" height="70" as="geometry"/>
                </mxCell>
                <mxCell id="OGDo6H8NNohpMqfSObW9-129" value="" style="rounded=0;whiteSpace=wrap;html=1;dashed=1;dashPattern=1 1;fillColor=none;" parent="1" vertex="1">
                    <mxGeometry x="1680" y="700" width="270" height="240" as="geometry"/>
                </mxCell>
                <mxCell id="OGDo6H8NNohpMqfSObW9-128" value="" style="rounded=0;whiteSpace=wrap;html=1;dashed=1;dashPattern=1 1;fillColor=none;" parent="1" vertex="1">
                    <mxGeometry x="1680" y="420" width="270" height="240" as="geometry"/>
                </mxCell>
                <mxCell id="OGDo6H8NNohpMqfSObW9-127" value="" style="rounded=0;whiteSpace=wrap;html=1;dashed=1;dashPattern=1 1;fillColor=none;" parent="1" vertex="1">
                    <mxGeometry x="1680" y="100" width="270" height="90" as="geometry"/>
                </mxCell>
                <mxCell id="OGDo6H8NNohpMqfSObW9-70" value="" style="rounded=0;whiteSpace=wrap;html=1;dashed=1;dashPattern=1 1;fillColor=none;" parent="1" vertex="1">
                    <mxGeometry x="900" y="680" width="240" height="130" as="geometry"/>
                </mxCell>
                <mxCell id="OGDo6H8NNohpMqfSObW9-63" value="" style="rounded=0;whiteSpace=wrap;html=1;dashed=1;dashPattern=1 1;fillColor=none;" parent="1" vertex="1">
                    <mxGeometry x="860" y="461" width="320" height="179" as="geometry"/>
                </mxCell>
                <mxCell id="OGDo6H8NNohpMqfSObW9-36" value="" style="rounded=0;whiteSpace=wrap;html=1;dashed=1;dashPattern=1 1;fillColor=none;" parent="1" vertex="1">
                    <mxGeometry x="100" y="770" width="240" height="70" as="geometry"/>
                </mxCell>
                <mxCell id="OGDo6H8NNohpMqfSObW9-35" value="" style="rounded=0;whiteSpace=wrap;html=1;dashed=1;dashPattern=1 1;fillColor=none;" parent="1" vertex="1">
                    <mxGeometry x="100" y="660" width="240" height="90" as="geometry"/>
                </mxCell>
                <mxCell id="OGDo6H8NNohpMqfSObW9-30" value="" style="rounded=0;whiteSpace=wrap;html=1;dashed=1;dashPattern=1 1;fillColor=none;" parent="1" vertex="1">
                    <mxGeometry x="100" y="76" width="240" height="80" as="geometry"/>
                </mxCell>
                <mxCell id="OGDo6H8NNohpMqfSObW9-27" value="" style="rounded=0;whiteSpace=wrap;html=1;dashed=1;dashPattern=1 1;fillColor=none;" parent="1" vertex="1">
                    <mxGeometry x="100" y="210" width="480" height="410" as="geometry"/>
                </mxCell>
                <mxCell id="OGDo6H8NNohpMqfSObW9-5" style="edgeStyle=orthogonalEdgeStyle;rounded=1;orthogonalLoop=1;jettySize=auto;html=1;exitX=0.5;exitY=1;exitDx=0;exitDy=0;entryX=0.5;entryY=0;entryDx=0;entryDy=0;endArrow=block;endFill=1;" parent="1" source="OGDo6H8NNohpMqfSObW9-1" target="OGDo6H8NNohpMqfSObW9-2" edge="1">
                    <mxGeometry relative="1" as="geometry"/>
                </mxCell>
                <mxCell id="OGDo6H8NNohpMqfSObW9-29" style="edgeStyle=orthogonalEdgeStyle;rounded=1;orthogonalLoop=1;jettySize=auto;html=1;endArrow=block;endFill=1;entryX=0.5;entryY=0;entryDx=0;entryDy=0;" parent="1" target="OGDo6H8NNohpMqfSObW9-1" edge="1">
                    <mxGeometry relative="1" as="geometry">
                        <mxPoint x="220" y="20" as="sourcePoint"/>
                    </mxGeometry>
                </mxCell>
                <mxCell id="OGDo6H8NNohpMqfSObW9-1" value="clear left elements counter (LEC)&lt;br&gt;clear right elements counter (REC)&lt;br&gt;clear elements counter (EC)" style="rounded=0;whiteSpace=wrap;html=1;" parent="1" vertex="1">
                    <mxGeometry x="120" y="96" width="200" height="45" as="geometry"/>
                </mxCell>
                <mxCell id="OGDo6H8NNohpMqfSObW9-6" style="edgeStyle=orthogonalEdgeStyle;rounded=1;orthogonalLoop=1;jettySize=auto;html=1;exitX=0.5;exitY=1;exitDx=0;exitDy=0;entryX=0.5;entryY=0;entryDx=0;entryDy=0;endArrow=block;endFill=1;" parent="1" source="OGDo6H8NNohpMqfSObW9-2" target="OGDo6H8NNohpMqfSObW9-3" edge="1">
                    <mxGeometry relative="1" as="geometry"/>
                </mxCell>
                <mxCell id="OGDo6H8NNohpMqfSObW9-2" value="set address mux to EC&lt;br&gt;set data mux to UART R" style="rounded=0;whiteSpace=wrap;html=1;" parent="1" vertex="1">
                    <mxGeometry x="120" y="230" width="200" height="40" as="geometry"/>
                </mxCell>
                <mxCell id="OGDo6H8NNohpMqfSObW9-4" style="edgeStyle=orthogonalEdgeStyle;rounded=1;orthogonalLoop=1;jettySize=auto;html=1;exitX=1;exitY=0.5;exitDx=0;exitDy=0;entryX=0.5;entryY=0;entryDx=0;entryDy=0;endArrow=block;endFill=1;" parent="1" source="OGDo6H8NNohpMqfSObW9-3" target="OGDo6H8NNohpMqfSObW9-2" edge="1">
                    <mxGeometry relative="1" as="geometry">
                        <Array as="points">
                            <mxPoint x="400" y="330"/>
                            <mxPoint x="400" y="190"/>
                            <mxPoint x="220" y="190"/>
                        </Array>
                    </mxGeometry>
                </mxCell>
                <mxCell id="OGDo6H8NNohpMqfSObW9-9" style="edgeStyle=orthogonalEdgeStyle;rounded=1;orthogonalLoop=1;jettySize=auto;html=1;exitX=0.5;exitY=1;exitDx=0;exitDy=0;entryX=0.5;entryY=0;entryDx=0;entryDy=0;endArrow=block;endFill=1;" parent="1" source="OGDo6H8NNohpMqfSObW9-3" target="OGDo6H8NNohpMqfSObW9-8" edge="1">
                    <mxGeometry relative="1" as="geometry"/>
                </mxCell>
                <mxCell id="OGDo6H8NNohpMqfSObW9-3" value="rx_done = '1'?" style="shape=hexagon;perimeter=hexagonPerimeter2;whiteSpace=wrap;html=1;fixedSize=1;" parent="1" vertex="1">
                    <mxGeometry x="120" y="310" width="200" height="40" as="geometry"/>
                </mxCell>
                <mxCell id="OGDo6H8NNohpMqfSObW9-7" value="F" style="text;html=1;strokeColor=none;fillColor=none;align=center;verticalAlign=middle;whiteSpace=wrap;rounded=0;" parent="1" vertex="1">
                    <mxGeometry x="320" y="300" width="60" height="30" as="geometry"/>
                </mxCell>
                <mxCell id="OGDo6H8NNohpMqfSObW9-11" style="edgeStyle=orthogonalEdgeStyle;rounded=1;orthogonalLoop=1;jettySize=auto;html=1;exitX=0.5;exitY=1;exitDx=0;exitDy=0;entryX=0.5;entryY=0;entryDx=0;entryDy=0;endArrow=block;endFill=1;" parent="1" source="OGDo6H8NNohpMqfSObW9-8" target="OGDo6H8NNohpMqfSObW9-10" edge="1">
                    <mxGeometry relative="1" as="geometry"/>
                </mxCell>
                <mxCell id="OGDo6H8NNohpMqfSObW9-8" value="wr &amp;lt;= '1'" style="rounded=1;whiteSpace=wrap;html=1;" parent="1" vertex="1">
                    <mxGeometry x="120" y="390" width="200" height="40" as="geometry"/>
                </mxCell>
                <mxCell id="OGDo6H8NNohpMqfSObW9-17" style="edgeStyle=orthogonalEdgeStyle;rounded=1;orthogonalLoop=1;jettySize=auto;html=1;exitX=1;exitY=0.5;exitDx=0;exitDy=0;entryX=0.5;entryY=1;entryDx=0;entryDy=0;endArrow=block;endFill=1;" parent="1" source="OGDo6H8NNohpMqfSObW9-10" target="OGDo6H8NNohpMqfSObW9-15" edge="1">
                    <mxGeometry relative="1" as="geometry"/>
                </mxCell>
                <mxCell id="OGDo6H8NNohpMqfSObW9-23" style="edgeStyle=orthogonalEdgeStyle;rounded=1;orthogonalLoop=1;jettySize=auto;html=1;exitX=0.5;exitY=1;exitDx=0;exitDy=0;endArrow=block;endFill=1;" parent="1" source="OGDo6H8NNohpMqfSObW9-10" target="OGDo6H8NNohpMqfSObW9-21" edge="1">
                    <mxGeometry relative="1" as="geometry"/>
                </mxCell>
                <mxCell id="OGDo6H8NNohpMqfSObW9-10" value="ASCII R = &quot;Enter&quot;?" style="shape=hexagon;perimeter=hexagonPerimeter2;whiteSpace=wrap;html=1;fixedSize=1;" parent="1" vertex="1">
                    <mxGeometry x="120" y="470" width="200" height="40" as="geometry"/>
                </mxCell>
                <mxCell id="OGDo6H8NNohpMqfSObW9-31" style="edgeStyle=orthogonalEdgeStyle;rounded=1;orthogonalLoop=1;jettySize=auto;html=1;exitX=0.5;exitY=0;exitDx=0;exitDy=0;entryX=0.5;entryY=0;entryDx=0;entryDy=0;endArrow=block;endFill=1;" parent="1" source="OGDo6H8NNohpMqfSObW9-15" target="OGDo6H8NNohpMqfSObW9-2" edge="1">
                    <mxGeometry relative="1" as="geometry">
                        <Array as="points">
                            <mxPoint x="460" y="190"/>
                            <mxPoint x="220" y="190"/>
                        </Array>
                    </mxGeometry>
                </mxCell>
                <mxCell id="OGDo6H8NNohpMqfSObW9-15" value="increment elements counter&lt;br&gt;(EC)" style="rounded=1;whiteSpace=wrap;html=1;" parent="1" vertex="1">
                    <mxGeometry x="360" y="390" width="200" height="40" as="geometry"/>
                </mxCell>
                <mxCell id="OGDo6H8NNohpMqfSObW9-18" value="F" style="text;html=1;strokeColor=none;fillColor=none;align=center;verticalAlign=middle;whiteSpace=wrap;rounded=0;" parent="1" vertex="1">
                    <mxGeometry x="320" y="460" width="60" height="30" as="geometry"/>
                </mxCell>
                <mxCell id="OGDo6H8NNohpMqfSObW9-19" value="T" style="text;html=1;strokeColor=none;fillColor=none;align=center;verticalAlign=middle;whiteSpace=wrap;rounded=0;" parent="1" vertex="1">
                    <mxGeometry x="220" y="350" width="60" height="30" as="geometry"/>
                </mxCell>
                <mxCell id="OGDo6H8NNohpMqfSObW9-37" style="edgeStyle=orthogonalEdgeStyle;rounded=1;orthogonalLoop=1;jettySize=auto;html=1;exitX=0.5;exitY=1;exitDx=0;exitDy=0;entryX=0.5;entryY=0;entryDx=0;entryDy=0;endArrow=block;endFill=1;" parent="1" source="OGDo6H8NNohpMqfSObW9-21" target="OGDo6H8NNohpMqfSObW9-34" edge="1">
                    <mxGeometry relative="1" as="geometry"/>
                </mxCell>
                <mxCell id="OGDo6H8NNohpMqfSObW9-21" value="clear elements counter&lt;br&gt;(EC)&lt;br&gt;increment EC&lt;br&gt;load right elements counter (REC)" style="rounded=1;whiteSpace=wrap;html=1;" parent="1" vertex="1">
                    <mxGeometry x="120" y="540" width="200" height="70" as="geometry"/>
                </mxCell>
                <mxCell id="OGDo6H8NNohpMqfSObW9-24" value="T" style="text;html=1;strokeColor=none;fillColor=none;align=center;verticalAlign=middle;whiteSpace=wrap;rounded=0;" parent="1" vertex="1">
                    <mxGeometry x="220" y="510" width="60" height="30" as="geometry"/>
                </mxCell>
                <mxCell id="OGDo6H8NNohpMqfSObW9-123" style="edgeStyle=orthogonalEdgeStyle;rounded=1;orthogonalLoop=1;jettySize=auto;html=1;exitX=0.5;exitY=1;exitDx=0;exitDy=0;entryX=0.5;entryY=0;entryDx=0;entryDy=0;endArrow=block;endFill=1;" parent="1" source="OGDo6H8NNohpMqfSObW9-33" target="OGDo6H8NNohpMqfSObW9-39" edge="1">
                    <mxGeometry relative="1" as="geometry">
                        <Array as="points">
                            <mxPoint x="220" y="880"/>
                            <mxPoint x="620" y="880"/>
                            <mxPoint x="620" y="80"/>
                            <mxPoint x="1020" y="80"/>
                        </Array>
                    </mxGeometry>
                </mxCell>
                <mxCell id="OGDo6H8NNohpMqfSObW9-33" value="load left element counter (LEC)" style="rounded=0;whiteSpace=wrap;html=1;" parent="1" vertex="1">
                    <mxGeometry x="120" y="785" width="200" height="40" as="geometry"/>
                </mxCell>
                <mxCell id="OGDo6H8NNohpMqfSObW9-122" style="edgeStyle=orthogonalEdgeStyle;rounded=1;orthogonalLoop=1;jettySize=auto;html=1;exitX=0.5;exitY=1;exitDx=0;exitDy=0;entryX=0.5;entryY=0;entryDx=0;entryDy=0;endArrow=block;endFill=1;" parent="1" source="OGDo6H8NNohpMqfSObW9-34" target="OGDo6H8NNohpMqfSObW9-33" edge="1">
                    <mxGeometry relative="1" as="geometry"/>
                </mxCell>
                <mxCell id="OGDo6H8NNohpMqfSObW9-34" value="set address mux to REC&lt;br&gt;load right_value register" style="rounded=0;whiteSpace=wrap;html=1;" parent="1" vertex="1">
                    <mxGeometry x="120" y="680" width="200" height="50" as="geometry"/>
                </mxCell>
                <mxCell id="7" style="edgeStyle=none;html=1;exitX=0.5;exitY=1;exitDx=0;exitDy=0;" edge="1" parent="1" source="OGDo6H8NNohpMqfSObW9-39" target="OGDo6H8NNohpMqfSObW9-41">
                    <mxGeometry relative="1" as="geometry"/>
                </mxCell>
                <mxCell id="OGDo6H8NNohpMqfSObW9-39" value="decrement left elements counter&lt;br&gt;(LEC)" style="rounded=0;whiteSpace=wrap;html=1;" parent="1" vertex="1">
                    <mxGeometry x="920" y="114" width="200" height="40" as="geometry"/>
                </mxCell>
                <mxCell id="OGDo6H8NNohpMqfSObW9-45" style="edgeStyle=orthogonalEdgeStyle;rounded=1;orthogonalLoop=1;jettySize=auto;html=1;exitX=0.5;exitY=1;exitDx=0;exitDy=0;entryX=0.5;entryY=0;entryDx=0;entryDy=0;endArrow=block;endFill=1;" parent="1" source="OGDo6H8NNohpMqfSObW9-41" target="L_lt8IWHbVz3kpPMdmdx-1" edge="1">
                    <mxGeometry relative="1" as="geometry"/>
                </mxCell>
                <mxCell id="OGDo6H8NNohpMqfSObW9-41" value="set address mux to LEC" style="rounded=0;whiteSpace=wrap;html=1;" parent="1" vertex="1">
                    <mxGeometry x="920" y="219" width="200" height="40" as="geometry"/>
                </mxCell>
                <mxCell id="OGDo6H8NNohpMqfSObW9-53" value="F" style="text;html=1;strokeColor=none;fillColor=none;align=center;verticalAlign=middle;whiteSpace=wrap;rounded=0;" parent="1" vertex="1">
                    <mxGeometry x="1030" y="350" width="60" height="30" as="geometry"/>
                </mxCell>
                <mxCell id="OGDo6H8NNohpMqfSObW9-156" style="edgeStyle=orthogonalEdgeStyle;rounded=1;orthogonalLoop=1;jettySize=auto;html=1;exitX=0.5;exitY=1;exitDx=0;exitDy=0;entryX=0.5;entryY=0;entryDx=0;entryDy=0;endArrow=block;endFill=1;" parent="1" source="OGDo6H8NNohpMqfSObW9-68" target="OGDo6H8NNohpMqfSObW9-155" edge="1">
                    <mxGeometry relative="1" as="geometry"/>
                </mxCell>
                <mxCell id="OGDo6H8NNohpMqfSObW9-68" value="set address mux to REC&lt;br&gt;set data mux to LER&lt;br&gt;write to RAM&lt;br&gt;set address mux to LEC&lt;br&gt;set data mux REC&lt;br&gt;write to RAM" style="rounded=0;whiteSpace=wrap;html=1;" parent="1" vertex="1">
                    <mxGeometry x="920" y="700" width="200" height="90" as="geometry"/>
                </mxCell>
                <mxCell id="OGDo6H8NNohpMqfSObW9-72" value="T" style="text;html=1;strokeColor=none;fillColor=none;align=center;verticalAlign=middle;whiteSpace=wrap;rounded=0;" parent="1" vertex="1">
                    <mxGeometry x="1110" y="291" width="60" height="30" as="geometry"/>
                </mxCell>
                <mxCell id="OGDo6H8NNohpMqfSObW9-91" style="edgeStyle=orthogonalEdgeStyle;rounded=1;orthogonalLoop=1;jettySize=auto;html=1;exitX=0.5;exitY=1;exitDx=0;exitDy=0;entryX=0.5;entryY=0;entryDx=0;entryDy=0;endArrow=block;endFill=1;" parent="1" source="OGDo6H8NNohpMqfSObW9-81" target="OGDo6H8NNohpMqfSObW9-82" edge="1">
                    <mxGeometry relative="1" as="geometry"/>
                </mxCell>
                <mxCell id="OGDo6H8NNohpMqfSObW9-81" value="increment elements counter&lt;br&gt;(EC)" style="rounded=0;whiteSpace=wrap;html=1;" parent="1" vertex="1">
                    <mxGeometry x="1720" y="130" width="200" height="40" as="geometry"/>
                </mxCell>
                <mxCell id="OGDo6H8NNohpMqfSObW9-142" style="edgeStyle=orthogonalEdgeStyle;rounded=1;orthogonalLoop=1;jettySize=auto;html=1;exitX=0.5;exitY=1;exitDx=0;exitDy=0;entryX=0.5;entryY=0;entryDx=0;entryDy=0;endArrow=block;endFill=1;" parent="1" source="OGDo6H8NNohpMqfSObW9-82" target="OGDo6H8NNohpMqfSObW9-159" edge="1">
                    <mxGeometry relative="1" as="geometry"/>
                </mxCell>
                <mxCell id="18" style="edgeStyle=none;html=1;exitX=0;exitY=0.5;exitDx=0;exitDy=0;entryX=0.5;entryY=0;entryDx=0;entryDy=0;" edge="1" parent="1" source="OGDo6H8NNohpMqfSObW9-82" target="16">
                    <mxGeometry relative="1" as="geometry">
                        <Array as="points">
                            <mxPoint x="1501" y="246"/>
                        </Array>
                    </mxGeometry>
                </mxCell>
                <mxCell id="OGDo6H8NNohpMqfSObW9-82" value="EC reached end of array?" style="shape=hexagon;perimeter=hexagonPerimeter2;whiteSpace=wrap;html=1;fixedSize=1;" parent="1" vertex="1">
                    <mxGeometry x="1720" y="226" width="200" height="40" as="geometry"/>
                </mxCell>
                <mxCell id="OGDo6H8NNohpMqfSObW9-158" style="edgeStyle=orthogonalEdgeStyle;rounded=1;orthogonalLoop=1;jettySize=auto;html=1;exitX=1;exitY=0.5;exitDx=0;exitDy=0;endArrow=block;endFill=1;entryX=0.5;entryY=0;entryDx=0;entryDy=0;startArrow=none;" parent="1" source="OGDo6H8NNohpMqfSObW9-66" target="OGDo6H8NNohpMqfSObW9-81" edge="1">
                    <mxGeometry relative="1" as="geometry">
                        <mxPoint x="1400" y="670" as="targetPoint"/>
                        <Array as="points">
                            <mxPoint x="1320" y="580"/>
                            <mxPoint x="1320" y="80"/>
                            <mxPoint x="1820" y="80"/>
                        </Array>
                    </mxGeometry>
                </mxCell>
                <mxCell id="OGDo6H8NNohpMqfSObW9-107" style="edgeStyle=orthogonalEdgeStyle;rounded=1;orthogonalLoop=1;jettySize=auto;html=1;exitX=0.5;exitY=1;exitDx=0;exitDy=0;entryX=0.5;entryY=0;entryDx=0;entryDy=0;endArrow=block;endFill=1;" parent="1" source="OGDo6H8NNohpMqfSObW9-99" target="OGDo6H8NNohpMqfSObW9-100" edge="1">
                    <mxGeometry relative="1" as="geometry"/>
                </mxCell>
                <mxCell id="OGDo6H8NNohpMqfSObW9-99" value="set address mux to EC" style="rounded=0;whiteSpace=wrap;html=1;" parent="1" vertex="1">
                    <mxGeometry x="1720" y="440" width="200" height="40" as="geometry"/>
                </mxCell>
                <mxCell id="OGDo6H8NNohpMqfSObW9-108" style="edgeStyle=orthogonalEdgeStyle;rounded=1;orthogonalLoop=1;jettySize=auto;html=1;exitX=0.5;exitY=1;exitDx=0;exitDy=0;endArrow=block;endFill=1;" parent="1" source="OGDo6H8NNohpMqfSObW9-100" target="OGDo6H8NNohpMqfSObW9-101" edge="1">
                    <mxGeometry relative="1" as="geometry"/>
                </mxCell>
                <mxCell id="OGDo6H8NNohpMqfSObW9-148" style="edgeStyle=orthogonalEdgeStyle;rounded=1;orthogonalLoop=1;jettySize=auto;html=1;exitX=1;exitY=0.5;exitDx=0;exitDy=0;endArrow=block;endFill=1;entryX=0.5;entryY=0;entryDx=0;entryDy=0;" parent="1" source="OGDo6H8NNohpMqfSObW9-100" target="OGDo6H8NNohpMqfSObW9-1" edge="1">
                    <mxGeometry relative="1" as="geometry">
                        <mxPoint x="220" y="110" as="targetPoint"/>
                        <Array as="points">
                            <mxPoint x="1980" y="540"/>
                            <mxPoint x="1980" y="40"/>
                            <mxPoint x="220" y="40"/>
                        </Array>
                    </mxGeometry>
                </mxCell>
                <mxCell id="OGDo6H8NNohpMqfSObW9-100" value="data_out = &quot;Enter&quot;?" style="shape=hexagon;perimeter=hexagonPerimeter2;whiteSpace=wrap;html=1;fixedSize=1;" parent="1" vertex="1">
                    <mxGeometry x="1720" y="520" width="200" height="40" as="geometry"/>
                </mxCell>
                <mxCell id="OGDo6H8NNohpMqfSObW9-109" style="edgeStyle=orthogonalEdgeStyle;rounded=1;orthogonalLoop=1;jettySize=auto;html=1;exitX=0.5;exitY=1;exitDx=0;exitDy=0;endArrow=block;endFill=1;" parent="1" source="OGDo6H8NNohpMqfSObW9-101" edge="1">
                    <mxGeometry relative="1" as="geometry">
                        <mxPoint x="1820" y="720" as="targetPoint"/>
                    </mxGeometry>
                </mxCell>
                <mxCell id="OGDo6H8NNohpMqfSObW9-101" value="set tx_start" style="rounded=1;whiteSpace=wrap;html=1;" parent="1" vertex="1">
                    <mxGeometry x="1720" y="600" width="200" height="40" as="geometry"/>
                </mxCell>
                <mxCell id="OGDo6H8NNohpMqfSObW9-111" style="edgeStyle=orthogonalEdgeStyle;rounded=1;orthogonalLoop=1;jettySize=auto;html=1;exitX=0.5;exitY=1;exitDx=0;exitDy=0;entryX=0.5;entryY=0;entryDx=0;entryDy=0;endArrow=block;endFill=1;" parent="1" source="OGDo6H8NNohpMqfSObW9-103" target="OGDo6H8NNohpMqfSObW9-104" edge="1">
                    <mxGeometry relative="1" as="geometry"/>
                </mxCell>
                <mxCell id="OGDo6H8NNohpMqfSObW9-103" value="set address mux to EC" style="rounded=0;whiteSpace=wrap;html=1;" parent="1" vertex="1">
                    <mxGeometry x="1720" y="720" width="200" height="40" as="geometry"/>
                </mxCell>
                <mxCell id="OGDo6H8NNohpMqfSObW9-106" style="edgeStyle=orthogonalEdgeStyle;rounded=1;orthogonalLoop=1;jettySize=auto;html=1;exitX=1;exitY=0.5;exitDx=0;exitDy=0;entryX=0.5;entryY=0;entryDx=0;entryDy=0;endArrow=block;endFill=1;" parent="1" source="OGDo6H8NNohpMqfSObW9-104" target="OGDo6H8NNohpMqfSObW9-103" edge="1">
                    <mxGeometry relative="1" as="geometry">
                        <Array as="points">
                            <mxPoint x="1980" y="820"/>
                            <mxPoint x="1980" y="680"/>
                            <mxPoint x="1820" y="680"/>
                        </Array>
                    </mxGeometry>
                </mxCell>
                <mxCell id="OGDo6H8NNohpMqfSObW9-110" style="edgeStyle=orthogonalEdgeStyle;rounded=1;orthogonalLoop=1;jettySize=auto;html=1;exitX=0.5;exitY=1;exitDx=0;exitDy=0;entryX=0.5;entryY=0;entryDx=0;entryDy=0;endArrow=block;endFill=1;" parent="1" source="OGDo6H8NNohpMqfSObW9-104" target="OGDo6H8NNohpMqfSObW9-105" edge="1">
                    <mxGeometry relative="1" as="geometry"/>
                </mxCell>
                <mxCell id="OGDo6H8NNohpMqfSObW9-104" value="tx_done = '1'?" style="shape=hexagon;perimeter=hexagonPerimeter2;whiteSpace=wrap;html=1;fixedSize=1;" parent="1" vertex="1">
                    <mxGeometry x="1720" y="800" width="200" height="40" as="geometry"/>
                </mxCell>
                <mxCell id="OGDo6H8NNohpMqfSObW9-150" style="edgeStyle=orthogonalEdgeStyle;rounded=1;orthogonalLoop=1;jettySize=auto;html=1;exitX=0.5;exitY=1;exitDx=0;exitDy=0;entryX=0.5;entryY=0;entryDx=0;entryDy=0;endArrow=block;endFill=1;" parent="1" source="OGDo6H8NNohpMqfSObW9-105" target="OGDo6H8NNohpMqfSObW9-99" edge="1">
                    <mxGeometry relative="1" as="geometry">
                        <Array as="points">
                            <mxPoint x="1820" y="980"/>
                            <mxPoint x="1620" y="980"/>
                            <mxPoint x="1620" y="400"/>
                            <mxPoint x="1820" y="400"/>
                        </Array>
                    </mxGeometry>
                </mxCell>
                <mxCell id="OGDo6H8NNohpMqfSObW9-105" value="increment elements counter (EC)" style="rounded=1;whiteSpace=wrap;html=1;" parent="1" vertex="1">
                    <mxGeometry x="1720" y="880" width="200" height="40" as="geometry"/>
                </mxCell>
                <mxCell id="OGDo6H8NNohpMqfSObW9-146" value="T" style="text;html=1;strokeColor=none;fillColor=none;align=center;verticalAlign=middle;whiteSpace=wrap;rounded=0;" parent="1" vertex="1">
                    <mxGeometry x="1760" y="266" width="60" height="30" as="geometry"/>
                </mxCell>
                <mxCell id="OGDo6H8NNohpMqfSObW9-147" value="F" style="text;html=1;strokeColor=none;fillColor=none;align=center;verticalAlign=middle;whiteSpace=wrap;rounded=0;" parent="1" vertex="1">
                    <mxGeometry x="1760" y="560" width="60" height="30" as="geometry"/>
                </mxCell>
                <mxCell id="OGDo6H8NNohpMqfSObW9-149" value="T" style="text;html=1;strokeColor=none;fillColor=none;align=center;verticalAlign=middle;whiteSpace=wrap;rounded=0;" parent="1" vertex="1">
                    <mxGeometry x="1920" y="510" width="60" height="30" as="geometry"/>
                </mxCell>
                <mxCell id="OGDo6H8NNohpMqfSObW9-151" value="F" style="text;html=1;strokeColor=none;fillColor=none;align=center;verticalAlign=middle;whiteSpace=wrap;rounded=0;" parent="1" vertex="1">
                    <mxGeometry x="1920" y="790" width="60" height="30" as="geometry"/>
                </mxCell>
                <mxCell id="OGDo6H8NNohpMqfSObW9-152" value="T" style="text;html=1;strokeColor=none;fillColor=none;align=center;verticalAlign=middle;whiteSpace=wrap;rounded=0;" parent="1" vertex="1">
                    <mxGeometry x="1760" y="840" width="60" height="30" as="geometry"/>
                </mxCell>
                <mxCell id="14" style="edgeStyle=none;html=1;exitX=0.5;exitY=1;exitDx=0;exitDy=0;entryX=0.5;entryY=0;entryDx=0;entryDy=0;" edge="1" parent="1" source="OGDo6H8NNohpMqfSObW9-155" target="OGDo6H8NNohpMqfSObW9-34">
                    <mxGeometry relative="1" as="geometry">
                        <Array as="points">
                            <mxPoint x="1020" y="1070"/>
                            <mxPoint x="80" y="1070"/>
                            <mxPoint x="80" y="640"/>
                            <mxPoint x="220" y="640"/>
                        </Array>
                    </mxGeometry>
                </mxCell>
                <mxCell id="OGDo6H8NNohpMqfSObW9-155" value="decrement right element counter (REC)" style="rounded=0;whiteSpace=wrap;html=1;" parent="1" vertex="1">
                    <mxGeometry x="920" y="870" width="200" height="60" as="geometry"/>
                </mxCell>
                <mxCell id="OGDo6H8NNohpMqfSObW9-161" style="edgeStyle=orthogonalEdgeStyle;rounded=1;orthogonalLoop=1;jettySize=auto;html=1;exitX=0.5;exitY=1;exitDx=0;exitDy=0;entryX=0.5;entryY=0;entryDx=0;entryDy=0;endArrow=block;endFill=1;" parent="1" source="OGDo6H8NNohpMqfSObW9-159" target="OGDo6H8NNohpMqfSObW9-99" edge="1">
                    <mxGeometry relative="1" as="geometry"/>
                </mxCell>
                <mxCell id="OGDo6H8NNohpMqfSObW9-159" value="clear elements counter (EC)" style="rounded=0;whiteSpace=wrap;html=1;" parent="1" vertex="1">
                    <mxGeometry x="1720" y="327" width="200" height="40" as="geometry"/>
                </mxCell>
                <mxCell id="OGDo6H8NNohpMqfSObW9-162" value="S0" style="text;html=1;strokeColor=none;fillColor=none;align=left;verticalAlign=middle;whiteSpace=wrap;rounded=0;dashed=1;dashPattern=1 1;fontStyle=1;fontColor=#FF0000;fontSize=15;" parent="1" vertex="1">
                    <mxGeometry x="340" y="76" width="40" height="30" as="geometry"/>
                </mxCell>
                <mxCell id="OGDo6H8NNohpMqfSObW9-163" value="S1&amp;nbsp;" style="text;html=1;strokeColor=none;fillColor=none;align=right;verticalAlign=middle;whiteSpace=wrap;rounded=0;dashed=1;dashPattern=1 1;fontStyle=1;fontColor=#FF0000;fontSize=15;" parent="1" vertex="1">
                    <mxGeometry x="540" y="210" width="40" height="30" as="geometry"/>
                </mxCell>
                <mxCell id="OGDo6H8NNohpMqfSObW9-164" value="S2" style="text;html=1;strokeColor=none;fillColor=none;align=left;verticalAlign=middle;whiteSpace=wrap;rounded=0;dashed=1;dashPattern=1 1;fontStyle=1;fontColor=#FF0000;fontSize=15;" parent="1" vertex="1">
                    <mxGeometry x="340" y="650" width="40" height="30" as="geometry"/>
                </mxCell>
                <mxCell id="OGDo6H8NNohpMqfSObW9-165" value="S3" style="text;html=1;strokeColor=none;fillColor=none;align=left;verticalAlign=middle;whiteSpace=wrap;rounded=0;dashed=1;dashPattern=1 1;fontStyle=1;fontColor=#FF0000;fontSize=15;" parent="1" vertex="1">
                    <mxGeometry x="340" y="770" width="40" height="30" as="geometry"/>
                </mxCell>
                <mxCell id="OGDo6H8NNohpMqfSObW9-167" value="S6&amp;nbsp;" style="text;html=1;strokeColor=none;fillColor=none;align=right;verticalAlign=middle;whiteSpace=wrap;rounded=0;dashed=1;dashPattern=1 1;fontStyle=1;fontColor=#FF0000;fontSize=15;" parent="1" vertex="1">
                    <mxGeometry x="1140" y="461" width="40" height="30" as="geometry"/>
                </mxCell>
                <mxCell id="OGDo6H8NNohpMqfSObW9-168" value="S7" style="text;html=1;strokeColor=none;fillColor=none;align=left;verticalAlign=middle;whiteSpace=wrap;rounded=0;dashed=1;dashPattern=1 1;fontStyle=1;fontColor=#FF0000;fontSize=15;" parent="1" vertex="1">
                    <mxGeometry x="1140" y="680" width="40" height="30" as="geometry"/>
                </mxCell>
                <mxCell id="OGDo6H8NNohpMqfSObW9-169" value="S8" style="text;html=1;strokeColor=none;fillColor=none;align=left;verticalAlign=middle;whiteSpace=wrap;rounded=0;dashed=1;dashPattern=1 1;fontStyle=1;fontColor=#FF0000;fontSize=15;" parent="1" vertex="1">
                    <mxGeometry x="1140" y="850" width="40" height="30" as="geometry"/>
                </mxCell>
                <mxCell id="OGDo6H8NNohpMqfSObW9-170" value="&amp;nbsp;S9a" style="text;html=1;strokeColor=none;fillColor=none;align=left;verticalAlign=middle;whiteSpace=wrap;rounded=0;dashed=1;dashPattern=1 1;fontStyle=1;fontColor=#FF0000;fontSize=15;" parent="1" vertex="1">
                    <mxGeometry x="1639" y="101" width="40" height="30" as="geometry"/>
                </mxCell>
                <mxCell id="OGDo6H8NNohpMqfSObW9-171" value="S11&amp;nbsp;" style="text;html=1;strokeColor=none;fillColor=none;align=right;verticalAlign=middle;whiteSpace=wrap;rounded=0;dashed=1;dashPattern=1 1;fontStyle=1;fontColor=#FF0000;fontSize=15;" parent="1" vertex="1">
                    <mxGeometry x="1639" y="420" width="40" height="30" as="geometry"/>
                </mxCell>
                <mxCell id="OGDo6H8NNohpMqfSObW9-172" value="S12&amp;nbsp;" style="text;html=1;strokeColor=none;fillColor=none;align=right;verticalAlign=middle;whiteSpace=wrap;rounded=0;dashed=1;dashPattern=1 1;fontStyle=1;fontColor=#FF0000;fontSize=15;" parent="1" vertex="1">
                    <mxGeometry x="1639" y="700" width="40" height="30" as="geometry"/>
                </mxCell>
                <mxCell id="qE4AglkrRlAp2CRrqQMC-2" value="S10b&amp;nbsp;" style="text;html=1;strokeColor=none;fillColor=none;align=right;verticalAlign=middle;whiteSpace=wrap;rounded=0;dashed=1;dashPattern=1 1;fontStyle=1;fontColor=#FF0000;fontSize=15;" parent="1" vertex="1">
                    <mxGeometry x="1682" y="314" width="40" height="30" as="geometry"/>
                </mxCell>
                <mxCell id="Uw-b2mNJYzt21tlcbAmd-1" value="S4" style="text;html=1;strokeColor=none;fillColor=none;align=left;verticalAlign=middle;whiteSpace=wrap;rounded=0;dashed=1;dashPattern=1 1;fontStyle=1;fontColor=#FF0000;fontSize=15;" parent="1" vertex="1">
                    <mxGeometry x="1140" y="99" width="40" height="30" as="geometry"/>
                </mxCell>
                <mxCell id="5" style="edgeStyle=none;html=1;exitX=0.5;exitY=1;exitDx=0;exitDy=0;" edge="1" parent="1" source="STAqftT4j32brJL8to_A-1" target="OGDo6H8NNohpMqfSObW9-66">
                    <mxGeometry relative="1" as="geometry"/>
                </mxCell>
                <mxCell id="STAqftT4j32brJL8to_A-1" value="load left element register (LER)" style="rounded=1;whiteSpace=wrap;html=1;" parent="1" vertex="1">
                    <mxGeometry x="920" y="480" width="200" height="40" as="geometry"/>
                </mxCell>
                <mxCell id="L_lt8IWHbVz3kpPMdmdx-2" style="edgeStyle=orthogonalEdgeStyle;rounded=1;orthogonalLoop=1;jettySize=auto;html=1;exitX=0.5;exitY=1;exitDx=0;exitDy=0;endArrow=block;endFill=1;" parent="1" source="L_lt8IWHbVz3kpPMdmdx-1" target="STAqftT4j32brJL8to_A-1" edge="1">
                    <mxGeometry relative="1" as="geometry">
                        <mxPoint x="858.5" y="355" as="targetPoint"/>
                        <Array as="points"/>
                    </mxGeometry>
                </mxCell>
                <mxCell id="10" style="edgeStyle=none;html=1;exitX=1;exitY=0.5;exitDx=0;exitDy=0;" edge="1" parent="1" source="L_lt8IWHbVz3kpPMdmdx-1" target="OGDo6H8NNohpMqfSObW9-81">
                    <mxGeometry relative="1" as="geometry">
                        <Array as="points">
                            <mxPoint x="1320" y="325"/>
                            <mxPoint x="1320" y="80"/>
                            <mxPoint x="1820" y="80"/>
                        </Array>
                    </mxGeometry>
                </mxCell>
                <mxCell id="L_lt8IWHbVz3kpPMdmdx-1" value="LEC reached end of array?" style="shape=hexagon;perimeter=hexagonPerimeter2;whiteSpace=wrap;html=1;fixedSize=1;" parent="1" vertex="1">
                    <mxGeometry x="920" y="305" width="200" height="40" as="geometry"/>
                </mxCell>
                <mxCell id="3" value="" style="group" vertex="1" connectable="0" parent="1">
                    <mxGeometry x="920" y="550" width="260" height="80" as="geometry"/>
                </mxCell>
                <mxCell id="OGDo6H8NNohpMqfSObW9-66" value="left_value register &amp;gt; right_value register?" style="shape=hexagon;perimeter=hexagonPerimeter2;whiteSpace=wrap;html=1;fixedSize=1;" parent="3" vertex="1">
                    <mxGeometry y="10" width="200" height="40" as="geometry"/>
                </mxCell>
                <mxCell id="OGDo6H8NNohpMqfSObW9-98" value="F" style="text;html=1;strokeColor=none;fillColor=none;align=center;verticalAlign=middle;whiteSpace=wrap;rounded=0;" parent="3" vertex="1">
                    <mxGeometry x="189" y="-10" width="60" height="30" as="geometry"/>
                </mxCell>
                <mxCell id="OGDo6H8NNohpMqfSObW9-166" value="S5&amp;nbsp;" style="text;html=1;strokeColor=none;fillColor=none;align=right;verticalAlign=middle;whiteSpace=wrap;rounded=0;dashed=1;dashPattern=1 1;fontStyle=1;fontColor=#FF0000;fontSize=15;" parent="1" vertex="1">
                    <mxGeometry x="1160" y="200" width="40" height="30" as="geometry"/>
                </mxCell>
                <mxCell id="STAqftT4j32brJL8to_A-4" value="T" style="text;html=1;strokeColor=none;fillColor=none;align=center;verticalAlign=middle;whiteSpace=wrap;rounded=0;" parent="1" vertex="1">
                    <mxGeometry x="950" y="610" width="60" height="30" as="geometry"/>
                </mxCell>
                <mxCell id="11" style="edgeStyle=none;html=1;exitX=0.5;exitY=1;exitDx=0;exitDy=0;entryX=0.5;entryY=0;entryDx=0;entryDy=0;" edge="1" parent="1" source="OGDo6H8NNohpMqfSObW9-66" target="OGDo6H8NNohpMqfSObW9-68">
                    <mxGeometry relative="1" as="geometry"/>
                </mxCell>
                <mxCell id="15" value="" style="rounded=0;whiteSpace=wrap;html=1;dashed=1;dashPattern=1 1;fillColor=none;" vertex="1" parent="1">
                    <mxGeometry x="1370" y="301" width="261" height="66" as="geometry"/>
                </mxCell>
                <mxCell id="19" style="edgeStyle=none;html=1;exitX=0.5;exitY=1;exitDx=0;exitDy=0;entryX=0.5;entryY=0;entryDx=0;entryDy=0;" edge="1" parent="1" source="16" target="OGDo6H8NNohpMqfSObW9-34">
                    <mxGeometry relative="1" as="geometry">
                        <Array as="points">
                            <mxPoint x="1500" y="1070"/>
                            <mxPoint x="80" y="1070"/>
                            <mxPoint x="80" y="640"/>
                            <mxPoint x="220" y="640"/>
                        </Array>
                    </mxGeometry>
                </mxCell>
                <mxCell id="16" value="load right element counter (REC)" style="rounded=0;whiteSpace=wrap;html=1;" vertex="1" parent="1">
                    <mxGeometry x="1401" y="314" width="200" height="40" as="geometry"/>
                </mxCell>
                <mxCell id="17" value="S10a&amp;nbsp;" style="text;html=1;strokeColor=none;fillColor=none;align=right;verticalAlign=middle;whiteSpace=wrap;rounded=0;dashed=1;dashPattern=1 1;fontStyle=1;fontColor=#FF0000;fontSize=15;" vertex="1" parent="1">
                    <mxGeometry x="1370" y="271" width="40" height="30" as="geometry"/>
                </mxCell>
            </root>
        </mxGraphModel>
    </diagram>
</mxfile>